<?xml version="1.0" encoding="utf-8"?>
<!-- Generator: Adobe Illustrator 16.0.0, SVG Export Plug-In . SVG Version: 6.00 Build 0)  -->
<!DOCTYPE svg PUBLIC "-//W3C//DTD SVG 1.1//EN" "http://www.w3.org/Graphics/SVG/1.1/DTD/svg11.dtd">
<svg version="1.1" id="Layer_1" xmlns="http://www.w3.org/2000/svg" xmlns:xlink="http://www.w3.org/1999/xlink" x="0px" y="0px"
	 width="2500px" height="1500px" viewBox="0 0 2500 1500" enable-background="new 0 0 2500 1500" xml:space="preserve">
<rect x="34.631" y="397.073" opacity="0.5" fill="#F6F2F8" width="2436.842" height="814.957"/>
<path fill="#262262" d="M512.079,1054.554H277.695V656.652h29.069v368.835h205.314V1054.554z"/>
<path fill="#262262" d="M1206.895,1054.554H919.459V656.652h277.625v29.064h-248.56v147.177h232.931v29.071H948.524v163.523h258.37
	V1054.554z"/>
<path fill="#262262" d="M1563.822,1054.554h-38.151l-242.742-363.382v363.382h-29.067V656.652h39.97l240.92,362.65v-362.65h29.071
	V1054.554z"/>
<path fill="#262262" d="M1919.791,763.119c-2.671-11.864-7.627-22.945-14.897-33.25c-7.267-10.293-16.354-19.254-27.251-26.888
	c-10.908-7.632-23.447-13.63-37.614-17.986c-14.166-4.363-29.37-6.542-45.604-6.542c-23.016,0-43.912,3.761-62.677,11.265
	c-18.776,7.511-34.767,18.597-47.968,33.249c-13.208,14.659-23.385,32.948-30.527,54.872c-7.147,21.933-10.725,47.417-10.725,76.494
	c0,29.075,3.577,54.693,10.725,76.854c7.143,22.166,17.319,40.759,30.527,55.779c13.201,15.021,29.063,26.402,47.6,34.155
	c18.531,7.761,39.18,11.633,61.953,11.633c34.398,0,62.746-7.692,85.034-23.083c22.281-15.377,36.091-37.845,41.425-67.403h30.159
	c-2.903,18.894-8.844,35.795-17.798,50.692c-8.971,14.9-20.239,27.436-33.796,37.608c-13.574,10.182-29.2,17.931-46.878,23.26
	c-17.689,5.323-36.825,7.995-57.415,7.995c-28.104,0-53.361-4.906-75.772-14.716c-22.405-9.812-41.479-23.681-57.229-41.607
	c-15.744-17.924-27.864-39.664-36.334-65.229c-8.487-25.556-12.721-54.198-12.721-85.938c0-31.49,4.233-59.834,12.721-85.028
	c8.47-25.2,20.646-46.698,36.517-64.503c15.864-17.802,35.002-31.491,57.413-41.067c22.406-9.564,47.543-14.352,75.405-14.352
	c19.13,0,37.361,2.791,54.688,8.36c17.317,5.576,32.89,13.391,46.696,23.437c13.803,10.049,25.438,22.045,34.884,35.974
	c9.448,13.937,15.987,29.252,19.619,45.967H1919.791z"/>
<path fill="#262262" d="M2292.468,1054.554h-287.437V656.652h277.631v29.064h-248.554v147.177h232.927v29.071h-232.927v163.523
	h258.359V1054.554z"/>
<path fill="#262262" d="M492.419,757.933c-57.96,99.647-24.039,227.87,75.606,285.825c99.647,57.955,227.871,24.039,285.826-75.604
	c57.956-99.653,24.04-227.872-75.609-285.826C678.596,624.368,550.377,658.285,492.419,757.933z M781.528,926.087
	c-34.818,59.861-111.573,80.167-171.433,45.35c-59.869-34.821-80.169-111.576-45.349-171.436
	c34.817-59.864,111.565-80.17,171.436-45.351C796.042,789.466,816.343,866.226,781.528,926.087z"/>
<path fill="#046937" d="M810.813,1027.946l-261.006,10.575C549.807,1038.521,677.261,1124.33,810.813,1027.946z"/>
<radialGradient id="SVGID_1_" cx="678.9346" cy="849.8398" r="146.1555" gradientTransform="matrix(0.8072 0.662 -4.211 6.4574 3709.6189 -5064.9028)" gradientUnits="userSpaceOnUse">
	<stop  offset="0" style="stop-color:#213160"/>
	<stop  offset="1" style="stop-color:#1C2753"/>
</radialGradient>
<path fill="url(#SVGID_1_)" d="M836.522,872.277c0,82.839-70.555,149.991-157.591,149.991c-87.027,0-157.584-67.152-157.584-149.991
	c0-82.828,70.557-149.984,157.584-149.984C765.967,722.293,836.522,789.449,836.522,872.277z"/>
<path fill="#046937" d="M742.44,970.298c1.436-2.255,3.022-4.986,5.266-8.851c4.273-7.368,10.872-22.688,15.279-37.11
	c12.694-41.609,17.212-94.72,17.235-94.847c1.583-18.552,1.412-35.145-0.856-52.773c-0.219-1.721-0.433-3.461-0.729-5.205
	c-0.31-1.856-1.267-1.24-1.233-0.004c0.337,15.063,0.591,27.781-2.034,42.489c-2.665,14.913-5.405,28.782-9.949,43.158
	c-10.451,33.084-32.392,51.513-45.954,60.878c-6.375,4.41-5.092,7.174,1.63,10.499c3.525,1.76,7.019,4.557,10.058,8.927
	c4.337,6.251,5.454,17.735,5.55,26.962C736.798,972.162,739.388,975.084,742.44,970.298z"/>
<path fill="#006838" d="M708.639,896.752c16.261-18.722,14.267-47.089-4.437-63.354c-18.726-16.275-47.092-14.284-63.353,4.435
	c-16.279,18.718-14.3,47.093,4.436,63.363C663.988,917.466,692.354,915.469,708.639,896.752z"/>
<path fill="#046937" d="M611.055,976.054c-1.594-2.194-3.38-4.898-5.9-8.708c-4.802-7.272-12.32-22.419-17.455-36.735
	c-14.802-41.296-21.134-94.281-21.156-94.402c-2.227-18.513-2.498-35.109-0.551-52.782c0.184-1.723,0.36-3.476,0.635-5.228
	c0.29-1.855,1.324-1.271,1.324-0.027c0.059,15.057,0.141,27.786,3.371,42.429c3.279,14.842,6.608,28.639,11.889,42.897
	c12.158,32.829,36.261,50.729,51.094,59.766c6.973,4.248,5.673,7.048-1.46,10.54c-3.75,1.84-7.414,4.71-10.56,9.165
	c-4.498,6.356-5.368,17.865-5.226,27.086C617.175,977.799,614.474,980.779,611.055,976.054z"/>
<radialGradient id="SVGID_2_" cx="851.8184" cy="1139.0098" r="194.5295" gradientTransform="matrix(0.7206 0.6933 -0.6933 0.7206 848.0127 -596.2051)" gradientUnits="userSpaceOnUse">
	<stop  offset="0.5161" style="stop-color:#2C3C90"/>
	<stop  offset="1" style="stop-color:#2DA7DF"/>
</radialGradient>
<path fill="url(#SVGID_2_)" d="M535.023,862.639c1.3-32.551,14.046-64.773,38.362-90.047c52.738-54.816,140.233-56.51,195.047-3.764
	c25.283,24.318,39.258,56.042,41.816,88.542l94.108-2.623c-3.251-56.335-26.897-111.633-70.665-153.754
	c-92.217-88.721-239.418-85.875-328.136,6.342c-41.743,43.383-63.223,98.942-64.648,154.866L535.023,862.639z"/>
<path fill="none" d="M872.052,418.295"/>
</svg>
